<svg width="105" height="105" viewBox="0 0 105 105" fill="none" xmlns="http://www.w3.org/2000/svg">
<rect width="100" height="100" rx="50" fill="#D4AF37"/>
<path d="M50 76C46.3889 76 43.0065 75.3139 39.8528 73.9417C36.6991 72.5694 33.9546 70.7157 31.6194 68.3806C29.2843 66.0454 27.4306 63.3009 26.0583 60.1472C24.6861 56.9935 24 53.6111 24 50C24 46.3889 24.6861 43.0065 26.0583 39.8528C27.4306 36.6991 29.2843 33.9546 31.6194 31.6194C33.9546 29.2843 36.6991 27.4306 39.8528 26.0583C43.0065 24.6861 46.3889 24 50 24C53.9481 24 57.6917 24.8426 61.2306 26.5278C64.7694 28.213 67.7667 30.5963 70.2222 33.6778V26.8889H76V44.2222H58.6667V38.4444H66.6111C64.637 35.7481 62.2056 33.6296 59.3167 32.0889C56.4278 30.5481 53.3222 29.7778 50 29.7778C44.3667 29.7778 39.588 31.7398 35.6639 35.6639C31.7398 39.588 29.7778 44.3667 29.7778 50C29.7778 55.6333 31.7398 60.412 35.6639 64.3361C39.588 68.2602 44.3667 70.2222 50 70.2222C55.0556 70.2222 59.4731 68.5852 63.2528 65.3111C67.0324 62.037 69.2593 57.8963 69.9333 52.8889H75.8556C75.1333 59.4852 72.3046 64.9861 67.3694 69.3917C62.4343 73.7972 56.6444 76 50 76ZM58.0889 62.1333L47.1111 51.1556V35.5556H52.8889V48.8444L62.1333 58.0889L58.0889 62.1333Z" fill="#7B630C"/>
<rect x="65" y="65.002" width="40" height="40" rx="20" fill="#F8F9FA"/>
<rect x="70" y="70.002" width="30" height="30" rx="15" fill="#D4AF37"/>
<path d="M81.0007 88.6685H86.334V86.6685C86.334 85.9351 86.0729 85.3073 85.5507 84.7851C85.0284 84.2629 84.4007 84.0018 83.6673 84.0018C82.934 84.0018 82.3062 84.2629 81.784 84.7851C81.2618 85.3073 81.0007 85.9351 81.0007 86.6685V88.6685ZM83.6673 82.6685C84.4007 82.6685 85.0284 82.4073 85.5507 81.8851C86.0729 81.3629 86.334 80.7351 86.334 80.0018V78.0018H81.0007V80.0018C81.0007 80.7351 81.2618 81.3629 81.784 81.8851C82.3062 82.4073 82.934 82.6685 83.6673 82.6685ZM78.334 90.0018V88.6685H79.6673V86.6685C79.6673 85.9907 79.8257 85.3546 80.1423 84.7601C80.459 84.1657 80.9007 83.6907 81.4673 83.3351C80.9007 82.9796 80.459 82.5046 80.1423 81.9101C79.8257 81.3157 79.6673 80.6796 79.6673 80.0018V78.0018H78.334V76.6685H89.0007V78.0018H87.6673V80.0018C87.6673 80.6796 87.509 81.3157 87.1923 81.9101C86.8757 82.5046 86.434 82.9796 85.8673 83.3351C86.434 83.6907 86.8757 84.1657 87.1923 84.7601C87.509 85.3546 87.6673 85.9907 87.6673 86.6685V88.6685H89.0007V90.0018H78.334Z" fill="#554300"/>
</svg>
