<svg width="126" height="126" viewBox="0 0 126 126" fill="none" xmlns="http://www.w3.org/2000/svg">
<path d="M46.5325 64.4594H79.1602C79.9039 64.4594 80.5271 64.208 81.0299 63.7053C81.5326 63.2025 81.784 62.5793 81.784 61.8356C81.784 61.0919 81.5326 60.4704 81.0299 59.9711C80.5271 59.4719 79.9056 59.2222 79.1654 59.2222H46.5325C45.7888 59.2222 45.1656 59.4736 44.6628 59.9764C44.1636 60.4792 43.9139 61.1006 43.9139 61.8408C43.9139 62.5845 44.1636 63.2077 44.6628 63.7105C45.1621 64.2133 45.7853 64.4629 46.5325 64.4594ZM46.5325 78.9612H79.1602C79.9039 78.9612 80.5271 78.7098 81.0299 78.207C81.5326 77.7043 81.784 77.081 81.784 76.3374C81.784 75.5937 81.5326 74.9722 81.0299 74.4729C80.5271 73.9736 79.9056 73.724 79.1654 73.724H46.5325C45.7888 73.724 45.1656 73.9754 44.6628 74.4782C44.1636 74.9809 43.9139 75.6042 43.9139 76.3478C43.9139 77.0915 44.1636 77.713 44.6628 78.2123C45.1621 78.7116 45.7853 78.9612 46.5325 78.9612ZM46.5325 93.4682H63.4486C64.1923 93.4682 64.8155 93.2151 65.3183 92.7088C65.8211 92.2026 66.0725 91.5811 66.0725 90.8444C66.0725 90.1077 65.8211 89.4862 65.3183 88.9799C64.8155 88.4737 64.1941 88.2223 63.4539 88.2258H46.5325C45.7888 88.2258 45.1656 88.4772 44.6628 88.9799C44.1636 89.4827 43.9139 90.1059 43.9139 90.8496C43.9139 91.5933 44.1636 92.2148 44.6628 92.714C45.1621 93.2133 45.7853 93.4682 46.5325 93.4682ZM34.6441 109.981C32.235 109.981 30.2239 109.175 28.6109 107.561C26.9978 105.948 26.1895 103.936 26.186 101.523V24.1697C26.186 21.7606 26.9943 19.7495 28.6109 18.1365C30.2274 16.5234 32.2402 15.7152 34.6493 15.7117H72.4252C73.5808 15.7117 74.6841 15.9386 75.7351 16.3925C76.786 16.8464 77.6903 17.4557 78.4479 18.2203L96.9928 36.7652C97.7505 37.5263 98.358 38.4306 98.8154 39.478C99.2727 40.5255 99.5014 41.6288 99.5014 42.7879V101.518C99.5014 103.927 98.6932 105.94 97.0766 107.556C95.4601 109.173 93.4507 109.981 91.0486 109.981H34.6441ZM94.2695 41.8976H79.6682C77.905 41.8976 76.4054 41.2814 75.1695 40.0489C73.937 38.8129 73.3207 37.3151 73.3207 35.5554V20.9489H34.6493C33.8428 20.9489 33.1026 21.284 32.4288 21.9544C31.7549 22.6248 31.4197 23.3632 31.4232 24.1697V101.523C31.4232 102.326 31.7584 103.064 32.4288 103.738C33.0991 104.412 33.8376 104.747 34.6441 104.744H91.0486C91.8516 104.744 92.5901 104.409 93.2639 103.738C93.9378 103.068 94.273 102.328 94.2695 101.518V41.8976Z" fill="#7480FE" fill-opacity="0.55"/>
<path d="M50.4455 49.1445H48.4706L48.4599 48.1146H50.1535C50.4437 48.1146 50.6862 48.0739 50.8808 47.9925C51.0755 47.9111 51.2224 47.7925 51.3215 47.6368C51.4241 47.481 51.4755 47.2917 51.4755 47.0687C51.4755 46.8209 51.4277 46.6192 51.3321 46.4635C51.2401 46.3077 51.095 46.1945 50.8968 46.1237C50.6986 46.0494 50.4473 46.0122 50.1429 46.0122H48.9431V52.5901H47.4831V44.8601H50.1429C50.5818 44.8601 50.9729 44.9026 51.3162 44.9876C51.663 45.069 51.9568 45.1964 52.1975 45.3698C52.4382 45.5432 52.6204 45.7609 52.7443 46.0228C52.8717 46.2847 52.9354 46.5962 52.9354 46.9572C52.9354 47.2758 52.8611 47.5695 52.7125 47.8385C52.5673 48.104 52.3426 48.3199 52.0382 48.4862C51.7374 48.6526 51.3551 48.7481 50.8915 48.7729L50.4455 49.1445ZM50.3818 52.5901H48.0405L48.6511 51.4433H50.3818C50.672 51.4433 50.9109 51.3956 51.0985 51.3C51.2896 51.2044 51.4312 51.0735 51.5232 50.9071C51.6188 50.7372 51.6666 50.5426 51.6666 50.3231C51.6666 50.0825 51.6241 49.8736 51.5392 49.6967C51.4578 49.5197 51.3268 49.3834 51.1463 49.2879C50.9693 49.1923 50.7357 49.1445 50.4455 49.1445H48.9271L48.9377 48.1146H50.8702L51.2047 48.5128C51.6507 48.5163 52.0134 48.6048 52.293 48.7782C52.5762 48.9516 52.785 49.1746 52.9195 49.4471C53.054 49.7197 53.1213 50.0134 53.1213 50.3284C53.1213 50.824 53.0133 51.2398 52.7974 51.5761C52.585 51.9123 52.2736 52.1654 51.863 52.3353C51.456 52.5051 50.9623 52.5901 50.3818 52.5901ZM60.318 48.5287V48.9269C60.318 49.5109 60.2401 50.0364 60.0844 50.5036C59.9286 50.9673 59.7074 51.3619 59.4207 51.6876C59.134 52.0132 58.7925 52.2627 58.3961 52.4361C57.9997 52.6096 57.559 52.6963 57.0741 52.6963C56.5963 52.6963 56.1575 52.6096 55.7575 52.4361C55.3611 52.2627 55.0178 52.0132 54.7276 51.6876C54.4373 51.3619 54.2126 50.9673 54.0533 50.5036C53.894 50.0364 53.8144 49.5109 53.8144 48.9269V48.5287C53.8144 47.9412 53.894 47.4156 54.0533 46.9519C54.2126 46.4882 54.4356 46.0936 54.7222 45.768C55.0089 45.4388 55.3505 45.1875 55.7469 45.0141C56.1468 44.8407 56.5857 44.754 57.0635 44.754C57.5484 44.754 57.9891 44.8407 58.3855 45.0141C58.7819 45.1875 59.1234 45.4388 59.4101 45.768C59.7003 46.0936 59.9233 46.4882 60.0791 46.9519C60.2383 47.4156 60.318 47.9412 60.318 48.5287ZM58.842 48.9269V48.5181C58.842 48.0969 58.8031 47.727 58.7252 47.4085C58.6474 47.0864 58.5324 46.8156 58.3802 46.5962C58.228 46.3768 58.0404 46.2122 57.8174 46.1025C57.5944 45.9892 57.3431 45.9326 57.0635 45.9326C56.7804 45.9326 56.5291 45.9892 56.3096 46.1025C56.0937 46.2122 55.9097 46.3768 55.7575 46.5962C55.6053 46.8156 55.4885 47.0864 55.4071 47.4085C55.3292 47.727 55.2903 48.0969 55.2903 48.5181V48.9269C55.2903 49.3445 55.3292 49.7144 55.4071 50.0364C55.4885 50.3585 55.6053 50.6311 55.7575 50.854C55.9132 51.0735 56.1008 51.2398 56.3203 51.3531C56.5397 51.4663 56.791 51.523 57.0741 51.523C57.3573 51.523 57.6086 51.4663 57.828 51.3531C58.0475 51.2398 58.2315 51.0735 58.3802 50.854C58.5324 50.6311 58.6474 50.3585 58.7252 50.0364C58.8031 49.7144 58.842 49.3445 58.842 48.9269ZM67.4403 44.8601V52.5901H65.975L62.6888 47.228V52.5901H61.2288V44.8601H62.6888L65.9857 50.2276V44.8601H67.4403ZM70.9101 52.5901H69.2431L69.2537 51.4433H70.9101C71.3596 51.4433 71.7365 51.3442 72.0409 51.146C72.3453 50.9443 72.5754 50.6558 72.7311 50.2807C72.8868 49.902 72.9647 49.4489 72.9647 48.9216V48.5234C72.9647 48.1164 72.9204 47.7571 72.832 47.4456C72.7435 47.1342 72.6125 46.8723 72.4391 46.6599C72.2692 46.4475 72.0586 46.2865 71.8073 46.1768C71.556 46.0671 71.2676 46.0122 70.942 46.0122H69.2112V44.8601H70.942C71.4587 44.8601 71.9294 44.9469 72.3542 45.1203C72.7824 45.2937 73.1523 45.5432 73.4637 45.8689C73.7787 46.1909 74.0194 46.5767 74.1858 47.0262C74.3557 47.4757 74.4406 47.9783 74.4406 48.534V48.9216C74.4406 49.4737 74.3557 49.9763 74.1858 50.4293C74.0194 50.8788 73.7787 51.2646 73.4637 51.5867C73.1523 51.9088 72.7806 52.1565 72.3488 52.3299C71.917 52.5034 71.4375 52.5901 70.9101 52.5901ZM70.0607 44.8601V52.5901H68.6007V44.8601H70.0607Z" fill="#A4ACFE"/>
</svg>
