<svg width="37" height="37" viewBox="0 0 37 37" fill="none" xmlns="http://www.w3.org/2000/svg">
<path d="M32.0093 18.3723C32.945 15.7526 32.9076 12.8683 31.9036 10.2122C30.8995 7.55607 28.9912 5.29302 26.5046 3.80974C24.018 2.32646 21.1075 1.71502 18.2704 2.0799C15.4333 2.44478 12.8458 3.76333 10.95 5.81024L11.3412 6.15678C13.1575 4.19573 15.6365 2.93248 18.3546 2.5829C21.0726 2.23333 23.8611 2.81912 26.2434 4.24019C28.6257 5.66125 30.454 7.82939 31.4159 10.3741C32.3779 12.9188 32.4137 15.6821 31.5172 18.1919L32.0093 18.3723Z" fill="#B4B4B4"/>
<path d="M26.8088 14.1016C24.9925 14.2132 23.2797 14.985 21.9929 16.2717C20.7062 17.5585 19.9344 19.2713 19.8228 21.0876H19.7948C19.6835 19.2713 18.9118 17.5583 17.625 16.2715C16.3382 14.9847 14.6252 14.213 12.8088 14.1016V14.0736C14.6252 13.9623 16.3382 13.1906 17.625 11.9038C18.9118 10.617 19.6835 8.90403 19.7948 7.08765H19.8228C19.9344 8.90396 20.7062 10.6168 21.9929 11.9036C23.2797 13.1903 24.9925 13.9621 26.8088 14.0736V14.1016Z" fill="#B4B4B4"/>
<path d="M28.4997 23.4952C26.5554 25.1261 24.1143 26.0873 21.5256 26.2414C18.937 26.3955 16.3335 25.7345 14.0876 24.353C11.8417 22.9715 10.0686 20.9403 9.02188 18.55C7.9752 16.1598 7.70861 13.5329 8.26027 11.0454L8.76561 11.173C8.23709 13.5562 8.4925 16.0729 9.49528 18.3629C10.4981 20.6529 12.1968 22.5989 14.3485 23.9224C16.5002 25.246 18.9945 25.8793 21.4746 25.7316C23.9547 25.584 26.2934 24.6631 28.1561 23.1006L28.4997 23.4952Z" fill="#B4B4B4"/>
<ellipse cx="9.77748" cy="8.75005" rx="1.06991" ry="1.09651" transform="rotate(6.80205 9.77748 8.75005)" fill="#B4B4B4"/>
<ellipse cx="30.0011" cy="21.0532" rx="1.06991" ry="1.09651" transform="rotate(6.80205 30.0011 21.0532)" fill="#B4B4B4"/>
</svg>
