<svg width="21" height="22" viewBox="0 0 21 22" fill="none" xmlns="http://www.w3.org/2000/svg">
<path d="M14.9722 2.13889C14.6886 2.13889 14.4166 2.02622 14.216 1.82566C14.0155 1.6251 13.9028 1.35308 13.9028 1.06944C13.9028 0.78581 14.0155 0.513793 14.216 0.313233C14.4166 0.112673 14.6886 0 14.9722 0H19.25C19.5336 0 19.8057 0.112673 20.0062 0.313233C20.2068 0.513793 20.3194 0.78581 20.3194 1.06944V5.34722C20.3194 5.63086 20.2068 5.90287 20.0062 6.10343C19.8057 6.30399 19.5336 6.41667 19.25 6.41667C18.9664 6.41667 18.6943 6.30399 18.4938 6.10343C18.2932 5.90287 18.1806 5.63086 18.1806 5.34722V3.65108L11.9853 9.84637C11.7847 10.0469 11.5127 10.1595 11.2292 10.1595C10.9456 10.1595 10.6736 10.0469 10.4731 9.84637L7.48611 6.85942L1.82554 12.52C1.62384 12.7148 1.3537 12.8226 1.07329 12.8202C0.792888 12.8177 0.524658 12.7052 0.326375 12.507C0.128091 12.3087 0.0156186 12.0404 0.013182 11.76C0.0107453 11.4796 0.118539 11.2095 0.313347 11.0078L6.73001 4.59113C6.93056 4.39064 7.20253 4.27801 7.48611 4.27801C7.76969 4.27801 8.04166 4.39064 8.24221 4.59113L11.2292 7.57808L16.6684 2.13889H14.9722ZM2.13889 17.1111V20.3194C2.13889 20.6031 2.02622 20.8751 1.82566 21.0757C1.6251 21.2762 1.35308 21.3889 1.06944 21.3889C0.78581 21.3889 0.513793 21.2762 0.313233 21.0757C0.112673 20.8751 0 20.6031 0 20.3194V17.1111C0 16.8275 0.112673 16.5555 0.313233 16.3549C0.513793 16.1543 0.78581 16.0417 1.06944 16.0417C1.35308 16.0417 1.6251 16.1543 1.82566 16.3549C2.02622 16.5555 2.13889 16.8275 2.13889 17.1111ZM7.48611 12.8333C7.48611 12.5497 7.37344 12.2777 7.17288 12.0771C6.97232 11.8766 6.7003 11.7639 6.41667 11.7639C6.13303 11.7639 5.86102 11.8766 5.66046 12.0771C5.4599 12.2777 5.34722 12.5497 5.34722 12.8333V20.3194C5.34722 20.6031 5.4599 20.8751 5.66046 21.0757C5.86102 21.2762 6.13303 21.3889 6.41667 21.3889C6.7003 21.3889 6.97232 21.2762 7.17288 21.0757C7.37344 20.8751 7.48611 20.6031 7.48611 20.3194V12.8333ZM11.7639 13.9028C12.0475 13.9028 12.3195 14.0155 12.5201 14.216C12.7207 14.4166 12.8333 14.6886 12.8333 14.9722V20.3194C12.8333 20.6031 12.7207 20.8751 12.5201 21.0757C12.3195 21.2762 12.0475 21.3889 11.7639 21.3889C11.4803 21.3889 11.2082 21.2762 11.0077 21.0757C10.8071 20.8751 10.6944 20.6031 10.6944 20.3194V14.9722C10.6944 14.6886 10.8071 14.4166 11.0077 14.216C11.2082 14.0155 11.4803 13.9028 11.7639 13.9028ZM18.1806 9.625C18.1806 9.34137 18.0679 9.06935 17.8673 8.86879C17.6668 8.66823 17.3947 8.55556 17.1111 8.55556C16.8275 8.55556 16.5555 8.66823 16.3549 8.86879C16.1543 9.06935 16.0417 9.34137 16.0417 9.625V20.3194C16.0417 20.6031 16.1543 20.8751 16.3549 21.0757C16.5555 21.2762 16.8275 21.3889 17.1111 21.3889C17.3947 21.3889 17.6668 21.2762 17.8673 21.0757C18.0679 20.8751 18.1806 20.6031 18.1806 20.3194V9.625Z" fill="#B4B4B4"/>
</svg>
