<svg width="21" height="26" viewBox="0 0 21 26" fill="none" xmlns="http://www.w3.org/2000/svg">
<path d="M2.77083 10.2083H8.89583C9.45729 10.2083 9.91667 9.74896 9.91667 9.1875V1.02083C9.91667 0.459375 9.45729 0 8.89583 0H2.77083C2.20938 0 1.75 0.459375 1.75 1.02083V9.1875C1.75 9.74896 2.20938 10.2083 2.77083 10.2083ZM2.77083 18.375H8.89583C9.45729 18.375 9.91667 17.9156 9.91667 17.3542V13.2708C9.91667 12.7094 9.45729 12.25 8.89583 12.25H2.77083C2.20938 12.25 1.75 12.7094 1.75 13.2708V17.3542C1.75 17.9156 2.20938 18.375 2.77083 18.375ZM12.9792 18.375H19.1042C19.6656 18.375 20.125 17.9156 20.125 17.3542V9.1875C20.125 8.62604 19.6656 8.16667 19.1042 8.16667H12.9792C12.4177 8.16667 11.9583 8.62604 11.9583 9.1875V17.3542C11.9583 17.9156 12.4177 18.375 12.9792 18.375ZM11.9583 1.02083V5.10417C11.9583 5.66563 12.4177 6.125 12.9792 6.125H19.1042C19.6656 6.125 20.125 5.66563 20.125 5.10417V1.02083C20.125 0.459375 19.6656 0 19.1042 0H12.9792C12.4177 0 11.9583 0.459375 11.9583 1.02083Z" fill="white"/>
</svg>
