<svg width="15" height="10" viewBox="0 0 15 10" fill="none" xmlns="http://www.w3.org/2000/svg">
<path d="M7.06273 2.8893C6.55187 2.8893 6.06193 3.09224 5.7007 3.45347C5.33947 3.8147 5.13653 4.30464 5.13653 4.8155C5.13653 5.32635 5.33947 5.81629 5.7007 6.17752C6.06193 6.53876 6.55187 6.74169 7.06273 6.74169C7.57359 6.74169 8.06352 6.53876 8.42476 6.17752C8.78599 5.81629 8.98892 5.32635 8.98892 4.8155C8.98892 4.30464 8.78599 3.8147 8.42476 3.45347C8.06352 3.09224 7.57359 2.8893 7.06273 2.8893ZM7.06273 8.02583C6.21129 8.02583 5.39473 7.6876 4.79268 7.08554C4.19063 6.48349 3.8524 5.66693 3.8524 4.8155C3.8524 3.96406 4.19063 3.1475 4.79268 2.54545C5.39473 1.9434 6.21129 1.60517 7.06273 1.60517C7.91416 1.60517 8.73072 1.9434 9.33277 2.54545C9.93483 3.1475 10.2731 3.96406 10.2731 4.8155C10.2731 5.66693 9.93483 6.48349 9.33277 7.08554C8.73072 7.6876 7.91416 8.02583 7.06273 8.02583ZM7.06273 0C3.8524 0 1.11077 1.99683 0 4.8155C1.11077 7.63417 3.8524 9.63099 7.06273 9.63099C10.2731 9.63099 13.0147 7.63417 14.1255 4.8155C13.0147 1.99683 10.2731 0 7.06273 0Z" fill="#64748B"/>
</svg>
