<svg width="20" height="20" viewBox="0 0 20 20" fill="none" xmlns="http://www.w3.org/2000/svg">
<path d="M9.93278 6.54838V3.98242L7.19949 5.69306H3.29481L0.561523 3.98242V16.8122" stroke="#717171" stroke-width="1.12261" stroke-miterlimit="10" stroke-linecap="round" stroke-linejoin="round"/>
<path d="M9.93278 6.55004L7.1995 8.26068H3.29481L0.561523 6.55004M7.57044 10.5948L7.1995 10.8266H3.29481L0.561523 9.11599M7.57044 13.1608L7.1995 13.3926H3.29481L0.561523 11.682M7.57044 15.7268L7.1995 15.9586H3.29481L0.561523 14.2479M7.57044 18.2927L7.1995 18.5245H3.29481L0.561523 16.8139M0.561523 3.98408L3.29481 2.27344H7.1995L9.93278 3.98408M18.5231 16.8139V9.11599L15.7898 10.8266H11.8851L9.15184 9.11599V16.8139" stroke="#717171" stroke-width="1.12261" stroke-miterlimit="10" stroke-linecap="round" stroke-linejoin="round"/>
<path d="M18.5246 11.6797L15.7913 13.3903H11.8866L9.15332 11.6797M18.5246 14.2457L15.7913 15.9563H11.8866L9.15332 14.2457M18.5246 16.8116L15.7913 18.5223H11.8866L9.15332 16.8116M9.15332 9.11374L11.8866 7.4031H15.7913L18.5246 9.11374M14.6199 0.560547V1.41587M14.6199 4.83714V5.69246M16.9627 3.12651H16.1818M13.058 3.12651H12.2771" stroke="#717171" stroke-width="1.12261" stroke-miterlimit="10" stroke-linecap="round" stroke-linejoin="round"/>
</svg>
