<svg width="20" height="15" viewBox="0 0 20 15" fill="none" xmlns="http://www.w3.org/2000/svg">
<path d="M2.91388 0.206383C3.04789 0.077981 3.22737 0.00693173 3.41367 0.00853777C3.59997 0.0101438 3.77818 0.0842766 3.90992 0.21497C4.04165 0.345663 4.11638 0.522459 4.118 0.70728C4.11962 0.8921 4.048 1.07016 3.91857 1.2031C2.31969 2.7894 1.42146 4.94083 1.42146 7.18412C1.42146 9.42742 2.31969 11.5788 3.91857 13.1651C4.04041 13.2996 4.10566 13.4752 4.1009 13.6559C4.09614 13.8366 4.02172 14.0086 3.89297 14.1365C3.76422 14.2644 3.59094 14.3385 3.40881 14.3435C3.22667 14.3484 3.04954 14.284 2.91388 14.1633C1.99008 13.2469 1.25726 12.1589 0.757297 10.9616C0.257331 9.76421 0 8.48086 0 7.18483C0 5.88879 0.257331 4.60545 0.757297 3.40808C1.25726 2.21071 1.99008 1.12277 2.91388 0.206383ZM15.9777 0.206383C16.1109 0.0742359 16.2916 0 16.48 0C16.6684 0 16.8491 0.0742359 16.9823 0.206383C17.9062 1.12277 18.639 2.21071 19.1389 3.40808C19.6389 4.60545 19.8962 5.88879 19.8962 7.18483C19.8962 8.48086 19.6389 9.76421 19.1389 10.9616C18.639 12.1589 17.9062 13.2469 16.9823 14.1633C16.9163 14.2287 16.8379 14.2806 16.7516 14.316C16.6653 14.3514 16.5729 14.3696 16.4795 14.3695C16.2909 14.3694 16.1102 14.2949 15.9769 14.1626C15.8437 14.0302 15.7689 13.8508 15.7691 13.6637C15.7692 13.4767 15.8442 13.2973 15.9777 13.1651C17.5765 11.5788 18.4748 9.42742 18.4748 7.18412C18.4748 4.94083 17.5765 2.7894 15.9777 1.2031C15.8445 1.07092 15.7696 0.891655 15.7696 0.704743C15.7696 0.51783 15.8445 0.33857 15.9777 0.206383ZM5.42631 2.69889C5.49186 2.63156 5.57026 2.57786 5.65695 2.54092C5.74363 2.50398 5.83687 2.48453 5.93121 2.48372C6.02556 2.4829 6.11912 2.50074 6.20644 2.53618C6.29376 2.57162 6.37309 2.62396 6.43981 2.69015C6.50652 2.75633 6.55928 2.83504 6.595 2.92167C6.63073 3.00829 6.64871 3.10111 6.64789 3.19471C6.64707 3.2883 6.62747 3.3808 6.59023 3.4668C6.55299 3.5528 6.49886 3.63058 6.431 3.69561C5.96909 4.1538 5.60269 4.69777 5.35271 5.29645C5.10272 5.89514 4.97406 6.53681 4.97406 7.18483C4.97406 7.83285 5.10272 8.47452 5.35271 9.0732C5.60269 9.67189 5.96909 10.2159 6.431 10.6741C6.56043 10.807 6.63204 10.9851 6.63043 11.1699C6.62881 11.3547 6.55408 11.5315 6.42234 11.6622C6.29061 11.7929 6.1124 11.867 5.9261 11.8686C5.7398 11.8702 5.56032 11.7992 5.42631 11.6708C4.83249 11.0817 4.36145 10.3823 4.04008 9.61261C3.71871 8.84291 3.5533 8.01795 3.5533 7.18483C3.5533 6.35171 3.71871 5.52675 4.04008 4.75705C4.36145 3.98735 4.83249 3.28799 5.42631 2.69889ZM13.4638 2.69889C13.5971 2.56674 13.7777 2.4925 13.9662 2.4925C14.1546 2.4925 14.3353 2.56674 14.4685 2.69889C15.0623 3.28799 15.5334 3.98735 15.8547 4.75705C16.1761 5.52675 16.3415 6.35171 16.3415 7.18483C16.3415 8.01795 16.1761 8.84291 15.8547 9.61261C15.5334 10.3823 15.0623 11.0817 14.4685 11.6708C14.3345 11.7992 14.155 11.8702 13.9687 11.8686C13.7824 11.867 13.6042 11.7929 13.4725 11.6622C13.3407 11.5315 13.266 11.3547 13.2644 11.1699C13.2628 10.9851 13.3344 10.807 13.4638 10.6741C13.9257 10.2159 14.2921 9.67189 14.5421 9.0732C14.7921 8.47452 14.9207 7.83285 14.9207 7.18483C14.9207 6.53681 14.7921 5.89514 14.5421 5.29645C14.2921 4.69777 13.9257 4.1538 13.4638 3.69561C13.3306 3.56342 13.2558 3.38416 13.2558 3.19725C13.2558 3.01033 13.3306 2.83107 13.4638 2.69889ZM9.94669 5.77504C10.3236 5.77504 10.685 5.92357 10.9515 6.18796C11.218 6.45235 11.3677 6.81093 11.3677 7.18483C11.3677 7.55873 11.218 7.91731 10.9515 8.1817C10.685 8.44609 10.3236 8.59462 9.94669 8.59462C9.5698 8.59462 9.20835 8.44609 8.94185 8.1817C8.67535 7.91731 8.52564 7.55873 8.52564 7.18483C8.52564 6.81093 8.67535 6.45235 8.94185 6.18796C9.20835 5.92357 9.5698 5.77504 9.94669 5.77504Z" fill="#69A1E1"/>
</svg>
