
<svg width="32" height="32" viewBox="0 0 32 32" fill="none" xmlns="http://www.w3.org/2000/svg">
<path d="M16.0217 5.3335C17.1199 7.21346 18.218 9.07233 19.2755 10.9523C17.5432 14.0148 15.8108 17.0998 14.0152 20.1412C13.3178 21.3026 12.6625 22.4866 11.9666 23.648C9.74918 23.6691 7.53028 23.6691 5.33398 23.648C5.39725 23.5004 5.46052 23.3528 5.54488 23.2052C9.05022 17.2474 12.5571 11.3123 16.0217 5.3335Z" fill="#AE285D"/>
<path d="M16.0215 16.7411C18.2389 16.7411 20.4578 16.72 22.6752 16.7622C24.0053 19.0655 25.358 21.3461 26.6671 23.6705C24.4497 23.6915 22.2308 23.6705 20.0134 23.6705C18.7043 21.3461 17.3305 19.0639 16.0215 16.7411Z" fill="#AE285D"/>
</svg>
