
<svg width="32" height="32" viewBox="0 0 32 32" fill="none" xmlns="http://www.w3.org/2000/svg">
<path fill-rule="evenodd" clip-rule="evenodd" d="M11.4688 9.5892C16.6534 4.44286 22.9284 3.1228 25.4346 6.62384C27.9409 10.144 25.7408 17.2035 20.5562 22.3307C15.3716 27.477 9.09647 28.7971 6.59026 25.296C4.10318 21.795 6.28416 14.7355 11.4688 9.5892Z" fill="#F99D28"/>
<path fill-rule="evenodd" clip-rule="evenodd" d="M14.913 6.85354C14.3582 7.27443 13.7651 7.77185 13.1912 8.32666C8.63789 12.8034 6.76302 18.9637 9.00139 22.0438C11.3163 25.124 16.9026 23.9952 21.5133 19.4611C24.0004 17.0506 25.6839 14.2191 26.3727 11.5981C26.5831 9.66585 26.2961 7.96316 25.4352 6.66223C23.4456 3.92644 19.1793 4.13689 14.913 6.85354Z" fill="#AF2A30"/>
<path fill-rule="evenodd" clip-rule="evenodd" d="M17.4765 24.8942C15.0468 26.7117 12.5406 27.63 10.0918 27.2474C11.1249 27.3048 11.9475 26.1569 12.6363 24.6264C13.325 23.0576 13.7459 21.6036 14.0711 20.2453C14.5494 18.0835 14.5877 16.553 14.339 16.2277C13.9181 15.6729 12.9806 15.826 11.9093 16.4382C11.3927 16.7251 10.7231 16.5338 11.5266 15.5581C12.3493 14.5824 15.5634 12.2101 16.7304 11.8466C18.0122 11.4832 19.4662 11.9806 18.9687 13.3772C18.6244 14.372 14.1476 26.1186 17.4765 24.8942ZM21.1306 6.70031C21.7428 7.31251 21.3602 8.63258 20.3462 9.66567C19.3131 10.6988 17.9548 11.0623 17.3617 10.4692C16.7304 9.87611 17.113 8.53692 18.1461 7.48469C19.1983 6.43247 20.5567 6.10724 21.1306 6.70031Z" fill="white"/>
</svg>
