
<svg width="32" height="32" viewBox="0 0 32 32" fill="none" xmlns="http://www.w3.org/2000/svg">
<path fill-rule="evenodd" clip-rule="evenodd" d="M16.0007 26.8911C9.02325 26.8911 3.33398 21.9954 3.33398 15.9956C3.33398 9.99578 9.02325 5.1001 16.0007 5.1001C22.9742 5.1001 28.6673 9.99578 28.6673 15.9956C28.6673 21.9954 22.9781 26.8911 16.0007 26.8911Z" fill="#004A8F"/>
<path fill-rule="evenodd" clip-rule="evenodd" d="M24.1278 17.0996L25.5425 17.1609C24.7029 23.0304 19.1325 23.4598 16.3262 17.7743L16.6942 17.1609C19.6002 19.005 23.0007 19.6989 24.1278 17.0996Z" fill="white"/>
<path fill-rule="evenodd" clip-rule="evenodd" d="M14.5445 8.55828L17.3699 7.63818L17.4926 23.6134L14.418 24.6561L14.5445 8.55828Z" fill="#ED1C24"/>
<path fill-rule="evenodd" clip-rule="evenodd" d="M24.1888 14.949H25.4808C24.9824 12.2615 23.6215 10.5708 20.9953 10.3408C18.8024 10.383 16.9392 11.652 15.4058 14.1516C14.3898 15.6889 12.7681 18.108 10.7938 18.3955C8.41685 18.7405 7.0367 16.6473 8.06415 14.8455C8.68905 13.749 10.3721 13.289 11.5528 13.4001C11.5605 13.4001 11.5682 13.4001 11.572 13.404C12.6531 13.5113 13.6461 13.7874 14.501 14.3087L14.5202 12.043C13.9834 11.5868 13.5464 11.1306 12.9215 10.82C12.0704 10.3945 11.2385 10.2565 10.4334 10.406C6.84885 11.1919 6.19328 14.1209 6.86802 18.0236C8.25967 22.5513 12.6033 22.8963 15.1029 19.9903C16.8051 17.9393 21.0528 11.0232 24.1888 14.949Z" fill="white"/>
</svg>
