
<svg width="32" height="32" viewBox="0 0 32 32" fill="none" xmlns="http://www.w3.org/2000/svg">
<g clip-path="url(#clip0_1364_4664)">
<path d="M29.3305 15.9998C29.3323 23.3607 23.3647 29.3292 16.0015 29.331C8.6383 29.3327 2.66772 23.367 2.66602 16.0061V15.9998C2.66426 8.63895 8.6319 2.67039 15.9952 2.66858C23.3584 2.66687 29.3288 8.63261 29.3306 15.9935L29.3305 15.9998Z" fill="#156DD1"/>
<path d="M18.3973 15.9996C18.3973 17.3246 17.3229 18.3987 15.9975 18.3987C14.672 18.3987 13.5977 17.3246 13.5977 15.9996C13.5977 14.6747 14.672 13.6006 15.9975 13.6006C17.3229 13.6006 18.3973 14.6747 18.3973 15.9996Z" fill="white"/>
<path d="M15.1699 17.7461H16.825V29.3278H15.1699V17.7461Z" fill="white"/>
</g>
<defs>
<clipPath id="clip0_1364_4664">
<rect width="26.6645" height="26.6667" fill="white" transform="translate(2.66602 2.6665)"/>
</clipPath>
</defs>
</svg>
